
<svg xmlns="http://www.w3.org/2000/svg" viewBox="0 0 512 512" width="512" height="512">
  <defs>
    <linearGradient id="bgGrad" x1="0%" y1="0%" x2="100%" y2="100%">
      <stop offset="0%" stop-color="#14151a" />
      <stop offset="50%" stop-color="#090a0d" />
      <stop offset="100%" stop-color="#050506" />
    </linearGradient>
    <radialGradient id="glowGrad" cx="50%" cy="50%" r="50%">
      <stop offset="0%" stop-color="#FACC15" stop-opacity="0.3" />
      <stop offset="60%" stop-color="#FACC15" stop-opacity="0.08" />
      <stop offset="100%" stop-color="#000000" stop-opacity="0" />
    </radialGradient>
    <filter id="neon" x="-20%" y="-20%" width="140%" height="140%">
      <feDropShadow dx="0" dy="2" stdDeviation="4" flood-color="#FACC15" flood-opacity="0.4" />
    </filter>
  </defs>

  <!-- Background with subtle squircle shape -->
  <rect width="512" height="512" rx="112.64" fill="url(#bgGrad)" />
  <rect x="1" y="1" width="510" height="510" rx="112.64" fill="none" stroke="#FACC15" stroke-opacity="0.25" stroke-width="4.096" />
  
  <!-- Ambient Center Glow -->
  <circle cx="256" cy="256" r="215.04" fill="url(#glowGrad)" />

  <!-- MENTION Brand Emblem -->
  <g transform="translate(107.52000000000001, 107.52000000000001) scale(4.242285714285714)" filter="url(#neon)">
    <!-- Outer Hexagon -->
    <path d="M35 5 L65 22 L65 52 L35 69 L5 52 L5 22 Z" fill="#FACC15" stroke="#FACC15" stroke-width="2"/>
    <!-- Inner Dark Hexagon -->
    <path d="M35 16 L53 27 L53 47 L35 58 L17 47 L17 27 Z" fill="#090A0D"/>
    <!-- Central dynamic M line -->
    <path d="M22 47 L22 30 L35 43 L48 30 L48 47" fill="none" stroke="#FACC15" stroke-width="4.5" stroke-linecap="round" stroke-linejoin="round"/>
  </g>
</svg>
